{
    "asset": {
        "version": "2.0",
        "generator": "babylon.js glTF exporter for maya 2018 v1.3.0"
    },
    "scene": 0,
    "scenes": [{
        "nodes": [0],
        "extensions": {}
    }],
    "nodes": [{
        "mesh": 0,
        "translation": [0.0, 0.005, 0.0],
        "rotation": [0.0, 0.0, 0.0, 1.0],
        "scale": [16.0, 0.01, 16.0],
        "name": "pCube1"
    }],
    "meshes": [{
        "primitives": [{
            "attributes": {
                "POSITION": 1,
                "NORMAL": 2,
                "TANGENT": 3,
                "TEXCOORD_0": 4
            },
            "indices": 0,
            "mode": 4,
            "material": 0
        }],
        "name": "pCube1"
    }],
    "accessors": [{
        "bufferView": 0,
        "componentType": 5123,
        "count": 36,
        "type": "SCALAR",
        "name": "accessorIndices"
    }, {
        "bufferView": 1,
        "componentType": 5126,
        "count": 24,
        "max": [0.5, 0.5, 0.5],
        "min": [-0.5, -0.5, -0.5],
        "type": "VEC3",
        "name": "accessorPositions"
    }, {
        "bufferView": 1,
        "byteOffset": 288,
        "componentType": 5126,
        "count": 24,
        "type": "VEC3",
        "name": "accessorNormals"
    }, {
        "bufferView": 2,
        "componentType": 5126,
        "count": 24,
        "type": "VEC4",
        "name": "accessorTangents"
    }, {
        "bufferView": 3,
        "componentType": 5126,
        "count": 24,
        "type": "VEC2",
        "name": "accessorUVs"
    }],
    "bufferViews": [{
        "buffer": 0,
        "byteLength": 72,
        "name": "bufferViewScalar"
    }, {
        "buffer": 0,
        "byteOffset": 72,
        "byteLength": 576,
        "byteStride": 12,
        "name": "bufferViewFloatVec3"
    }, {
        "buffer": 0,
        "byteOffset": 648,
        "byteLength": 384,
        "byteStride": 16,
        "name": "bufferViewFloatVec4"
    }, {
        "buffer": 0,
        "byteOffset": 1032,
        "byteLength": 192,
        "byteStride": 8,
        "name": "bufferViewFloatVec2"
    }],
    "buffers": [{
        "uri": "groundPlane.bin",
        "byteLength": 1224
    }],
    "materials": [{
        "pbrMetallicRoughness": {
            "baseColorFactor": [1.0, 1.0, 1.0, 1.0],
            "baseColorTexture": {
                "index": 2,
                "texCoord": 0
            },
            "metallicFactor": 0.0,
            "roughnessFactor": 0.450053632
        },
        "normalTexture": {
            "index": 0,
            "texCoord": 0
        },
        "emissiveTexture": {
            "index": 1,
            "texCoord": 0
        },
        "emissiveFactor": [1.0, 1.0, 1.0],
        "alphaMode": "OPAQUE",
        "name": "dirt2"
    }],
    "textures": [{
        "sampler": 0,
        "source": 0,
        "name": "Cracked_Mud_001_DISP.png"
    }, {
        "sampler": 1,
        "source": 1,
        "name": "dirt2_emissive.jpg"
    }, {
        "sampler": 2,
        "source": 2,
        "name": "dirt2_baseColor.jpg"
    }],
    "images": [{
        "uri": "Cracked_Mud_001_DISP.png"
    }, {
        "uri": "dirt2_emissive.jpg"
    }, {
        "uri": "dirt2_baseColor.jpg"
    }],
    "samplers": [{
        "magFilter": 9729,
        "minFilter": 9987,
        "wrapS": 10497,
        "wrapT": 10497
    }, {
        "magFilter": 9729,
        "minFilter": 9987,
        "wrapS": 10497,
        "wrapT": 10497
    }, {
        "magFilter": 9729,
        "minFilter": 9987,
        "wrapS": 10497,
        "wrapT": 10497
    }]
}