{"asset":{"version":"2.0","generator":"babylon.js glTF exporter for maya 2018 v1.3.0"},"scene":0,"scenes":[{"nodes":[0,1],"extensions":{}}],"nodes":[{"mesh":0,"translation":[0.0,0.0,0.0],"rotation":[0.0,0.0,0.0,1.0],"scale":[1.0,1.0,1.0],"name":"jumpRamp"},{"mesh":1,"translation":[0.0,0.0,0.0],"rotation":[0.0,0.0,0.0,1.0],"scale":[1.0,1.0,1.0],"name":"jumpRamp_collider"}],"meshes":[{"primitives":[{"attributes":{"POSITION":1,"NORMAL":2,"TANGENT":3},"indices":0,"mode":4,"material":0}],"name":"jumpRamp"},{"primitives":[{"attributes":{"POSITION":5,"NORMAL":6,"TANGENT":7},"indices":4,"mode":4,"material":1}],"name":"jumpRamp_collider"}],"accessors":[{"bufferView":0,"componentType":5123,"count":432,"type":"SCALAR","name":"accessorIndices"},{"bufferView":1,"componentType":5126,"count":266,"max":[14.0,5.5,3.0],"min":[-10.0,0.0,-3.0],"type":"VEC3","name":"accessorPositions"},{"bufferView":1,"byteOffset":3192,"componentType":5126,"count":266,"type":"VEC3","name":"accessorNormals"},{"bufferView":2,"componentType":5126,"count":266,"type":"VEC4","name":"accessorTangents"},{"bufferView":0,"byteOffset":864,"componentType":5123,"count":432,"type":"SCALAR","name":"accessorIndices"},{"bufferView":1,"byteOffset":6384,"componentType":5126,"count":266,"max":[14.0,5.5,3.0],"min":[-10.0,0.0,-3.0],"type":"VEC3","name":"accessorPositions"},{"bufferView":1,"byteOffset":9576,"componentType":5126,"count":266,"type":"VEC3","name":"accessorNormals"},{"bufferView":2,"byteOffset":4256,"componentType":5126,"count":266,"type":"VEC4","name":"accessorTangents"}],"bufferViews":[{"buffer":0,"byteLength":1728,"name":"bufferViewScalar"},{"buffer":0,"byteOffset":1728,"byteLength":12768,"byteStride":12,"name":"bufferViewFloatVec3"},{"buffer":0,"byteOffset":14496,"byteLength":8512,"byteStride":16,"name":"bufferViewFloatVec4"}],"buffers":[{"uri":"jumpRamp.bin","byteLength":23008}],"materials":[{"pbrMetallicRoughness":{"baseColorFactor":[0.5,0.4333,0.3137,1.0],"metallicFactor":0.0,"roughnessFactor":0.450053632},"emissiveFactor":[0.7101,0.589461267,0.393128842],"alphaMode":"OPAQUE","name":"lambert2"},{"pbrMetallicRoughness":{"baseColorFactor":[0.25,0.25,0.25,1.0],"metallicFactor":0.0,"roughnessFactor":0.450053632},"emissiveFactor":[0.0,0.0,0.0],"alphaMode":"OPAQUE","name":"lambert1"}]}