{"asset":{"version":"2.0","generator":"babylon.js glTF exporter for maya 2018 v1.3.0"},"scene":0,"scenes":[{"nodes":[0,1],"extensions":{}}],"nodes":[{"mesh":0,"translation":[0.0,1.0,0.0],"rotation":[0.0,0.0,0.0,1.0],"scale":[1.0,1.0,1.0],"name":"ramp"},{"mesh":1,"translation":[0.0,1.0,0.0],"rotation":[0.0,0.0,0.0,1.0],"scale":[1.0,1.0,1.0],"name":"ramp_collider"}],"meshes":[{"primitives":[{"attributes":{"POSITION":1,"NORMAL":2,"TANGENT":3,"TEXCOORD_0":4},"indices":0,"mode":4,"material":0}],"name":"ramp"},{"primitives":[{"attributes":{"POSITION":6,"NORMAL":7,"TANGENT":8,"TEXCOORD_0":9},"indices":5,"mode":4,"material":0}],"name":"ramp_collider"}],"accessors":[{"bufferView":0,"componentType":5123,"count":120,"type":"SCALAR","name":"accessorIndices"},{"bufferView":1,"componentType":5126,"count":78,"max":[20.0,16.0,35.84671],"min":[-9.0,-1.0,-6.0],"type":"VEC3","name":"accessorPositions"},{"bufferView":1,"byteOffset":936,"componentType":5126,"count":78,"type":"VEC3","name":"accessorNormals"},{"bufferView":2,"componentType":5126,"count":78,"type":"VEC4","name":"accessorTangents"},{"bufferView":3,"componentType":5126,"count":78,"type":"VEC2","name":"accessorUVs"},{"bufferView":0,"byteOffset":240,"componentType":5123,"count":120,"type":"SCALAR","name":"accessorIndices"},{"bufferView":1,"byteOffset":1872,"componentType":5126,"count":78,"max":[20.0,16.0,35.84671],"min":[-9.0,-1.0,-6.0],"type":"VEC3","name":"accessorPositions"},{"bufferView":1,"byteOffset":2808,"componentType":5126,"count":78,"type":"VEC3","name":"accessorNormals"},{"bufferView":2,"byteOffset":1248,"componentType":5126,"count":78,"type":"VEC4","name":"accessorTangents"},{"bufferView":3,"byteOffset":624,"componentType":5126,"count":78,"type":"VEC2","name":"accessorUVs"}],"bufferViews":[{"buffer":0,"byteLength":480,"name":"bufferViewScalar"},{"buffer":0,"byteOffset":480,"byteLength":3744,"byteStride":12,"name":"bufferViewFloatVec3"},{"buffer":0,"byteOffset":4224,"byteLength":2496,"byteStride":16,"name":"bufferViewFloatVec4"},{"buffer":0,"byteOffset":6720,"byteLength":1248,"byteStride":8,"name":"bufferViewFloatVec2"}],"buffers":[{"uri":"ramp.bin","byteLength":7968}],"materials":[{"pbrMetallicRoughness":{"baseColorFactor":[0.5,0.5,0.5,1.0],"metallicFactor":0.0,"roughnessFactor":0.450053632},"emissiveFactor":[0.4107,0.3098,0.1288],"alphaMode":"OPAQUE","name":"beige"}]}